PathFileType	4	(X/Y/Z)	/Users/visionmauri/1_5_1_f_1_Sports2D/1_5_1_f_1_Sports2D_m_person00.trc
DataRate	CameraRate	NumFrames	NumMarkers	Units	OrigDataRate	OrigDataStartFrame	OrigNumFrames
30.0	30.0	10	22	m	30.0	270	432
Frame#	Time	Hip			RHip			RKnee			RAnkle			RBigToe			RSmallToe			RHeel			LHip			LKnee			LAnkle			LBigToe			LSmallToe			LHeel			Neck			Head			Nose			RShoulder			RElbow			RWrist			LShoulder			LElbow			LWrist			
		X1	Y1	Z1	X2	Y2	Z2	X3	Y3	Z3	X4	Y4	Z4	X5	Y5	Z5	X6	Y6	Z6	X7	Y7	Z7	X8	Y8	Z8	X9	Y9	Z9	X10	Y10	Z10	X11	Y11	Z11	X12	Y12	Z12	X13	Y13	Z13	X14	Y14	Z14	X15	Y15	Z15	X16	Y16	Z16	X17	Y17	Z17	X18	Y18	Z18	X19	Y19	Z19	X20	Y20	Z20	X21	Y21	Z21	X22	Y22	Z22
270	9.020881670533644	0.5856570212555886	0.7849888053891608	0.0301	0.5155305498418955	0.7463348155008546	0.0301	0.6484764786084511	0.47635978844820137	0.129	0.7977829562378099	0.20407638151530316	0.023	0.854965085575385	0.12252148385820512	0.2179	0.8111018871822517	0.1094280222515814	0.1804	0.8264079307283333	0.16629333485370731	-0.0119	0.6588524248874362	0.8091690643174897	0.0301	0.7768148477434471	0.5543189243680385	0.129	0.8972548417835864	0.30621639967249287	0.023	0.9308718745492897	0.2039569194422885	0.2179	0.9606242738268366	0.23466741519807718	0.1804	0.9075544749886494	0.26221715062772977	-0.0119	0.4078280961495925	1.2033988721338655	0.0008	0.32776057288651295	1.3805612500341298	0.0655	0.3824097182712773	1.2574764095999629	0.1076	0.3036447380716758	1.09029063051999	-0.01275	0.33784522746657697	0.8995741980060765	0.0702	0.3555809877333186	0.7229807031479976	0.1076	0.5657875520349435	1.2117319129409765	-0.01275	0.7013711741109206	1.0488348359744464	0.0702	0.7707796513036019	0.9154026000059132	0.1076
271	9.054292343387472	0.5839681612370329	0.783468283291606	0.0301	0.5152177447761244	0.7435875352378208	0.0301	0.6515228826341308	0.47525742891768064	0.129	0.7999198433685261	0.20317328126465528	0.023	0.8588843055066778	0.12294159168682413	0.2179	0.8154766187305218	0.10825313525244659	0.1804	0.827837495149459	0.16396379161116809	-0.0119	0.6579928945423156	0.8077724310193525	0.0301	0.7752956324505411	0.5540442131971408	0.129	0.8953924232439006	0.3086181740216913	0.023	0.9320184498320003	0.20413794415350217	0.2179	0.9602161924094164	0.23475932889882786	0.1804	0.9049328045953239	0.2636457309082482	-0.0119	0.40463459555042675	1.2033312680881414	0.0008	0.3238131912889764	1.3810205584028143	0.0655	0.37909648188223566	1.2563914011962305	0.1076	0.2999874924714941	1.0881081002571766	-0.01275	0.3353348844223215	0.8982265017860797	0.0702	0.35508588436905264	0.7237540077983212	0.1076	0.5626972014318536	1.2097033665231318	-0.01275	0.699359944983991	1.0494762806552604	0.0702	0.7690937397471219	0.9136470165485074	0.1076
272	9.0877030162413	0.5816046356312575	0.7828038297997024	0.0301	0.5138344826662942	0.7411185815039946	0.0301	0.6528014525827667	0.47495605153608084	0.129	0.7996582775140686	0.2028691504142369	0.023	0.8591471644664429	0.12305614744604441	0.2179	0.8161898319416593	0.10757181653946245	0.1804	0.8276002501377892	0.16301264095667567	-0.0119	0.6570014354599637	0.8071458567095346	0.0301	0.7748805474327912	0.5546528848918992	0.129	0.8940388579685347	0.31060625404382014	0.023	0.9332262942656133	0.20419488940596367	0.2179	0.9604891087568732	0.23465210163723269	0.1804	0.9032285976670478	0.2636308498177567	-0.0119	0.4014144722058694	1.2031839887490683	0.0008	0.3194013321158228	1.3813855050330803	0.0655	0.37569615015956437	1.255385762521645	0.1076	0.2948994278150227	1.0860969256055932	-0.01275	0.331447982858571	0.8968946801129565	0.0702	0.3544563266474587	0.7245856555496619	0.1076	0.5597510687497419	1.209180608453046	-0.01275	0.6983569534859491	1.0511338961260501	0.0702	0.7660825856916993	0.9192061783051405	0.1076
273	9.121113689095129	0.580153712999995	0.7833245564999293	0.0301	0.5128950977016881	0.7395606468635606	0.0301	0.651873448731508	0.4741696922690493	0.129	0.7988765860099785	0.2023480202505811	0.023	0.858812907877641	0.1227009668548926	0.2179	0.815503864390038	0.10758354910149613	0.1804	0.8270278999420044	0.16236372719432693	-0.0119	0.6560301422742684	0.8070302303305418	0.0301	0.7746736058394789	0.5564536578580496	0.129	0.8936052985678677	0.3113255626965653	0.023	0.933796580285409	0.2039367278672846	0.2179	0.9610948621372476	0.2342999297442377	0.1804	0.902449048379937	0.2630983738372342	-0.0119	0.3974013515835553	1.2028069063950657	0.0008	0.3147261270667299	1.381424409705208	0.0655	0.3703639086936437	1.256336058656628	0.1076	0.2901419182115859	1.084175269966507	-0.01275	0.3270032736861252	0.8967446333438779	0.0702	0.3533381628486652	0.7249979348570202	0.1076	0.5557826643108613	1.210384383868802	-0.01275	0.6967483981656244	1.0526343136835472	0.0702	0.7587909553266462	0.9338254434855051	0.1076
274	9.154524361948956	0.5795073142821102	0.7834360061909318	0.0301	0.5119566420312025	0.7393383393711088	0.0301	0.6499135572901195	0.47283220236801743	0.129	0.7991988562308942	0.2012009648919871	0.023	0.8590125938605339	0.12181982136392026	0.2179	0.8148317747043821	0.10766864024743408	0.1804	0.8272696525179092	0.1615861373867757	-0.0119	0.6546439423792545	0.8082305497787319	0.0301	0.774121998641742	0.5585856356511143	0.129	0.8939957846470239	0.31112436196397686	0.023	0.9338150477180438	0.20391804551761994	0.2179	0.9617966456702911	0.23383797015700697	0.1804	0.9025175931020901	0.2633557006338076	-0.0119	0.3925230825097065	1.2017827480726635	0.0008	0.30952573370845465	1.3825770286398174	0.0655	0.3651481224221929	1.257470454730385	0.1076	0.2863594529499476	1.0825798444759178	-0.01275	0.3223362918435708	0.8977540100143881	0.0702	0.35066229718411546	0.7250986208642586	0.1076	0.5511938715074475	1.211665151482816	-0.01275	0.694115944433367	1.0534871904287402	0.0702	0.7440094847213936	0.9602845613792079	0.1076
275	9.187935034802784	0.5783312539333801	0.7820535543564527	0.0301	0.5099165095236493	0.7394967803749647	0.0301	0.6485231209934952	0.47152873458034045	0.129	0.8005068009725689	0.19984690755259873	0.023	0.8591544697586933	0.12049345996787868	0.2179	0.8142157024316207	0.10729431192616987	0.1804	0.8281391118630113	0.16139377067580893	-0.0119	0.6525435552212604	0.8107932567491251	0.0301	0.7730097947078185	0.5606008219291324	0.129	0.8946181531620566	0.31120506465877523	0.023	0.9333506561418343	0.20487529625875045	0.2179	0.9626347856374897	0.23381545382179686	0.1804	0.9033458397541337	0.26445026022972373	-0.0119	0.3877363124819446	1.2008330903965676	0.0008	0.30388159032843187	1.384818367841876	0.0655	0.36210235392874507	1.2571854979436412	0.1076	0.2833610246901217	1.0814896381311216	-0.01275	0.31797492729056637	0.8986510039857052	0.0702	0.34630093697662917	0.7250354954783571	0.1076	0.5474666108251427	1.2118360735482778	-0.01275	0.6909925313404057	1.0539399323634953	0.0702	0.730245244405285	0.9819674066975366	0.1076
276	9.221345707656614	0.5762483987467434	0.7815833660875182	0.0301	0.5075144901321481	0.7393084028147556	0.0301	0.6482314998316788	0.47086268926979685	0.129	0.8010046803582156	0.1992973339957661	0.023	0.8586687024021106	0.119474966452563	0.2179	0.8136069938765518	0.10673391370498128	0.1804	0.8285076179400725	0.16222370818824097	-0.0119	0.650726782499252	0.813268610084202	0.0301	0.770897190054177	0.5637292300316274	0.129	0.8950135086034811	0.3121794820872827	0.023	0.9325099146292798	0.206371732735808	0.2179	0.9636685915672645	0.2343872607894936	0.1804	0.904309189832626	0.2655798319156178	-0.0119	0.38356993140153406	1.2014748437082117	0.0008	0.298608399613538	1.3858534971335352	0.0655	0.35828087039898465	1.2569398545025343	0.1076	0.2806399056666582	1.080054521059782	-0.01275	0.3143760412998722	0.8987066274081237	0.0702	0.3412891174970373	0.7249515888955989	0.1076	0.5446267868817888	1.2119596549220049	-0.01275	0.6870296567050663	1.0551280855904102	0.0702	0.7266137484623728	0.9830490071405344	0.1076
277	9.254756380510441	0.5739114637216826	0.7841486637743545	0.0301	0.505922236415919	0.7395112936641144	0.0301	0.648486929152431	0.470870003972434	0.129	0.7999875755036902	0.2002130831104346	0.023	0.858055299560422	0.11940645624318215	0.2179	0.8133252583863592	0.1062789026874986	0.1804	0.828461103847505	0.1637172355028569	-0.0119	0.6496963343322317	0.8147486955087792	0.0301	0.7672828924394489	0.5698643563136444	0.129	0.8950844664634763	0.3134600983743305	0.023	0.9316965585382128	0.2071582469805147	0.2179	0.964469956914651	0.23494811419723846	0.1804	0.9043684059958798	0.2664618919432697	-0.0119	0.37995499582019365	1.203339209760827	0.0008	0.2946331640860781	1.3850512250564329	0.0655	0.3514451502022653	1.2583802345385404	0.1076	0.2774049495389295	1.078175003950172	-0.01275	0.3106137990365976	0.8982359052776255	0.0702	0.336171172375246	0.7247188681877135	0.1076	0.5415294267929124	1.213061639633487	-0.01275	0.6827362918574975	1.0574175950468525	0.0702	0.7293733664737034	0.970679602754899	0.1076
278	9.288167053364269	0.5716397568825466	0.7874114141812799	0.0301	0.5044026928405362	0.7409652258334879	0.0301	0.648505436887403	0.4710535702665449	0.129	0.7993718382676883	0.20193728996645224	0.023	0.8585590275297592	0.12006582193843447	0.2179	0.8134004015644626	0.10587191832047023	0.1804	0.8293392996436746	0.16516350459053936	-0.0119	0.648151258369087	0.8163537809419215	0.0301	0.7630194099436599	0.5790640881051509	0.129	0.8952685524410248	0.31395102533666897	0.023	0.9313040806265463	0.2072912323939373	0.2179	0.9648264929398048	0.23507430526014725	0.1804	0.9041386418532058	0.2671776725414103	-0.0119	0.37694817520816437	1.2046185026764558	0.0008	0.29205351219315584	1.3851316604364412	0.0655	0.3451352975193765	1.2606411376917603	0.1076	0.2732029890457108	1.0777430753626467	-0.01275	0.30567531959008054	0.8977903471914384	0.0702	0.3308628320292047	0.7240912295625231	0.1076	0.5380578945334434	1.2144495119965797	-0.01275	0.6801880697708406	1.058587033475339	0.0702	0.7310719365621966	0.9575239953270297	0.1076
279	9.321577726218099	0.5694623074233702	0.7882571325352158	0.0301	0.5016188785783762	0.7435296661459981	0.0301	0.6480575572580379	0.47107259909931987	0.129	0.800373163019437	0.20320318324308517	0.023	0.860236500885902	0.12105453830376679	0.2179	0.8134435437210823	0.10569116639533509	0.1804	0.8310132081173861	0.16602709610460448	-0.0119	0.6453497734373975	0.8191861832025463	0.0301	0.7601453273704202	0.5884956944786993	0.129	0.8960958108699639	0.3137280516665354	0.023	0.9314773438642039	0.2079172154458817	0.2179	0.9653142902735711	0.23493790163813755	0.1804	0.9053524847967441	0.2678115632288651	-0.0119	0.374026742966302	1.2050522480739423	0.0008	0.2895345952599419	1.3879196258195619	0.0655	0.3421202687701706	1.2620474016917216	0.1076	0.26830995940804986	1.0794043014296097	-0.01275	0.3000543698531331	0.8973220248257721	0.0702	0.3256821148004232	0.7229721732210964	0.1076	0.5352363723025422	1.215348587662042	-0.01275	0.6792819958042203	1.0562863185596145	0.0702	0.7299081952282367	0.9477983592244491	0.1076
